<?xml version="1.0" encoding="UTF-8" standalone="no"?><!DOCTYPE svg PUBLIC "-//W3C//DTD SVG 1.1//EN" "http://www.w3.org/Graphics/SVG/1.1/DTD/svg11.dtd"><svg width="100%" height="100%" viewBox="0 0 1081 814" version="1.1" xmlns="http://www.w3.org/2000/svg" xmlns:xlink="http://www.w3.org/1999/xlink" xml:space="preserve" xmlns:serif="http://www.serif.com/" style="fill-rule:evenodd;clip-rule:evenodd;stroke-linejoin:round;stroke-miterlimit:2;"><g><path d="M1042.62,449.807c14.93,-65.091 6.68,-133.487 -14.98,-195.974c-2.83,-8.175 -10.39,-30.978 -16.87,-35.585c-11.257,-7.999 -20.737,6.205 -22.054,16.179c-1.894,14.347 6.116,47.288 8.089,63.725c3.815,31.822 4.205,65.853 10.075,97.087c4.69,24.957 15.7,35.945 32.319,53.865l3.421,0.703Zm-359.187,-426.166c-76.854,2.215 -152.556,25.184 -216.402,67.66c-3.895,2.591 -9.981,5.425 -10.572,10.408c-1.123,9.491 6.615,13.385 14.06,16.701c40.679,10.645 79.849,34.341 122.559,20.222c26.929,-8.903 55.322,-22.788 82.077,-33.345c14.284,-5.635 30.467,-10.162 44.168,-16.54c25.257,-11.759 30.966,-36.646 22.76,-61.986c-19.463,-2.505 -39.028,-3.686 -58.65,-3.12Zm-427.837,297.273c1.676,-29.249 24.427,-81.515 38.585,-107.923c99.241,-185.106 339.613,-261.202 531.796,-179.43c8.116,3.453 16.705,7.091 24.006,11.969c-0.234,0.804 -1.768,0.326 -2.433,0.185c-21.247,-4.491 -44.329,-15.805 -66.668,-18.077c-3.236,-0.329 -3.05,0.029 -2.328,3.116c6.578,28.108 21.123,50.666 44.966,66.71c18.08,12.167 37.944,23.117 56.385,35.051c21.408,13.854 44.415,31.802 66.084,44.088c6.398,3.628 15.199,7.307 22.677,7.121c8.308,-0.208 16.451,-6.134 24.389,-8.274l-0.317,-3.625l-13.819,-22.902c-0.306,-0.936 0.186,-1.497 1.104,-1.104c1.92,0.824 8.667,9.769 10.439,12.048c85.988,110.558 115.058,261.687 65.998,394.815c-0.88,2.373 -5.43,14.172 -6.66,15.078c-1.29,0.949 -2.01,0.809 -3.461,0.37c-5.609,-1.707 -16.109,-19.923 -20.979,-25.513c-3.71,-4.259 -8.3,-7.758 -11.87,-12.166l17.54,-39.162l-73.652,-67.829c10.292,-19.019 13.313,-38.509 12.567,-59.99c-1.103,-31.776 -4.806,-69.467 -9.121,-101.037c-6.246,-45.689 -23.303,-65.012 -60.681,-89.205c-23.312,-15.089 -49.429,-31.283 -73.638,-44.779c-36.125,-20.139 -59.836,-22.244 -98.671,-6.966c-19.967,7.855 -40.94,17.462 -60.494,26.446c-17.308,7.952 -47.106,19.854 -59.841,33.095c-22.708,23.611 -18.594,48.553 -20.596,78.324c-0.153,2.283 0.852,10.214 -1.226,10.798c-1.201,0.338 -10.751,-2.031 -13.369,-2.217c-11.867,-0.841 -21.712,2.212 -32.263,2.34c-3.876,0.047 -3.58,-1.508 -3.368,-4.919c2.45,-39.366 12.499,-65.116 -27.718,-87.706c-33.378,-18.747 -80.723,-39.878 -115.992,-16.265c-42.96,28.761 -61.816,77.548 -81.023,122.822c-5.171,12.191 -12.155,22.57 -14.374,36.212c-1.195,-0.654 -1.296,-2.801 -2.235,-3.389c-1.512,-0.947 -31.801,-0.753 -35.632,-0.36c-1.908,0.195 -3.128,0.496 -4.107,2.25Z" style="fill:#fff;fill-rule:nonzero;"/><path d="M611.63,453.55l105.687,0c1.307,50.166 -24.764,96.973 -75.696,109.04c-70,16.584 -138.956,-27.55 -143.203,-101.14c-6.119,-106.012 123.247,-153.162 197.172,-84.719c1.482,1.372 7.182,6.363 6.405,7.872l-27.131,26.929c-16.147,-14.734 -35.068,-26.962 -57.62,-28.414c-82.075,-5.282 -109.236,105.917 -34.072,138.224c29.207,12.554 74.406,6.482 87.838,-26.044c0.437,-1.061 0.952,-3.531 -0.54,-3.531l-58.465,0c-0.079,0 -1.124,-1.044 -1.124,-1.124l0,-35.22c0,-0.247 0.993,-1.137 0.749,-1.873Z" style="fill:#fff;fill-rule:nonzero;"/><path d="M877.72,478.279c0.184,-1.518 -0.137,-2.903 -0.514,-4.359c-5.863,-22.688 -19.9,-47.272 -26.437,-70.235l-1.899,-1.848l-28.116,76.442l56.966,0Zm72.706,82.429l-40.101,0l-18.089,-43.363l-85.378,-0.154l-17.585,43.517l-41.225,0l80.564,-209.832c0.553,-0.823 1.395,-0.677 2.219,-0.779c11.239,-1.386 25.255,1.152 36.813,-0.001c2.465,-0.167 2.845,1.995 3.69,3.805c24.109,67.431 53.539,133.141 77.402,200.628c0.705,1.994 1.65,4.026 1.69,6.179Z" style="fill:#fff;fill-rule:nonzero;"/><path d="M297.57,322.413c-0.839,5.161 -0.529,10.211 -1.53,15.331l0.149,184.622c0.544,0.109 1.483,0.874 1.756,0.874l56.591,0l0,36.344c0,0.079 -1.045,1.124 -1.125,1.124l-95.942,0c-0.821,0 -1.075,-1.83 -1.162,-2.585c-3.007,-25.617 2.958,-56.399 -0.742,-82.436c2.206,-50.83 -2.843,-104.629 0.031,-154.773c0.979,-1.754 2.199,-2.055 4.107,-2.25c3.831,-0.393 34.12,-0.587 35.632,0.36c0.939,0.588 1.04,2.735 2.235,3.389Z" style="fill:#fff;fill-rule:nonzero;"/><rect x="401.757" y="349.345" width="40.476" height="211.363" style="fill:#fff;fill-rule:nonzero;"/><path d="M212.122,339.648l0,34.845l-177.269,177.223l-34.853,0l212.122,-212.068Z" style="fill:#fff;fill-rule:nonzero;"/><path d="M214.37,413.085l0,34.096l-104.561,104.535l-34.855,0l139.416,-138.631Z" style="fill:#fff;fill-rule:nonzero;"/><path d="M212.871,492.517l0,34.845l-24.36,24.354l-35.603,0l59.963,-59.199Z" style="fill:#fff;fill-rule:nonzero;"/><path d="M911.449,725.566l56.591,0c0.485,0 1.495,-1.504 0.831,-2.278l-27.43,-73.648l-1.883,-0.519l-28.109,76.445Zm130.421,83.179l-40.85,0l-17.959,-43.514l-86.128,0.151c-2.312,0.794 -15.739,43.363 -18.089,43.363l-40.101,0l80.622,-210.524c0.937,-1.225 2.286,-1.393 3.69,-1.556c7.299,-0.847 28.034,-0.903 35.284,-0.031c0.828,0.099 1.64,0.015 2.214,0.784l81.317,211.327Z" style="fill:#fff;fill-rule:nonzero;"/><path d="M702.175,592.405c32.187,-2.514 63.318,6.197 88.2,26.775c2.323,1.922 13.727,12.553 13.928,14.629c0.186,1.917 -2.058,3.561 -3.393,4.85c-7.704,7.435 -15.665,14.758 -23.873,21.606c-6.305,-4.682 -11.493,-10.517 -17.955,-15.046c-59.321,-41.578 -134.478,9.364 -114.845,79.597c9.714,34.75 41.323,52.483 76.484,50.239c23.919,-1.527 40.528,-14.714 57.581,-29.951c9.319,8.894 18.316,18.537 26.738,28.046c0.005,2.053 -16.452,15.401 -19.267,17.484c-58.921,43.598 -151.346,25.151 -177.154,-46.695c-25.113,-69.912 17.989,-145.631 93.556,-151.534Z" style="fill:#fff;fill-rule:nonzero;"/><path d="M402.132,596.677l38.227,0c0.079,0 1.124,1.045 1.124,1.124l0,149.122c0,2.267 2.141,8.714 3.106,11.132c11.222,28.101 59.107,20.042 59.107,-11.882l0,-148.372c0,-0.079 1.044,-1.124 1.124,-1.124l38.227,0c0.621,0 1.326,1.817 1.162,2.585c-1.946,46.923 2.456,95.747 -0.007,142.446c-2.54,48.155 -33.175,76.529 -82.01,71.437c-39.728,-4.143 -59.136,-33.652 -61.215,-71.437c-2.567,-46.631 2.016,-95.572 -0.007,-142.446l1.162,-2.585Z" style="fill:#fff;fill-rule:nonzero;"/><path d="M216.619,769.029l32.605,0c10.01,0 27.892,-9.673 35.249,-16.466c25.201,-23.264 25.544,-73.973 1.129,-97.835c-7.611,-7.439 -26.493,-17.586 -37.127,-17.586l-31.481,0l-0.375,131.887Zm-40.475,39.716l0,-211.319c13.49,-1.045 27.292,-1.051 40.881,-0.78c40.302,0.804 83.623,4.543 108.89,40.26c20.304,28.702 22.491,75.192 12.502,108.139c-21.391,70.553 -102.96,63.874 -162.273,63.7Z" style="fill:#fff;fill-rule:nonzero;"/><path d="M117.679,635.644l-73.831,0c-0.132,0 -1.874,1.74 -1.874,1.873l0,37.093l74.581,0c0.079,0 1.124,1.045 1.124,1.124l0,37.093l-74.58,0c-0.08,0 -1.125,1.045 -1.125,1.124l0,53.954c0,0.079 1.045,1.124 1.125,1.124l74.58,0l0,39.716l-115.431,0l0,-210.944c0,-0.079 1.045,-1.124 1.124,-1.124l113.183,0c0.079,0 1.124,1.045 1.124,1.124l0,37.843Z" style="fill:#fff;fill-rule:nonzero;"/></g></svg>