<?xml version="1.0" encoding="UTF-8" standalone="no"?><!DOCTYPE svg PUBLIC "-//W3C//DTD SVG 1.1//EN" "http://www.w3.org/Graphics/SVG/1.1/DTD/svg11.dtd"><svg width="100%" height="100%" viewBox="0 0 1813 603" version="1.1" xmlns="http://www.w3.org/2000/svg" xmlns:xlink="http://www.w3.org/1999/xlink" xml:space="preserve" xmlns:serif="http://www.serif.com/" style="fill-rule:evenodd;clip-rule:evenodd;stroke-linejoin:round;stroke-miterlimit:2;"><g><path d="M388.346,533.448l-55.103,0c-0.08,0 -1.125,-1.044 -1.125,-1.124l0,-33.717c0,-0.08 1.045,-1.124 1.125,-1.124l97.461,0c1.467,0 1.216,5.201 1.152,6.403c-3.532,66.554 -49.257,106.695 -116.4,97.541c-62.191,-8.479 -100.454,-68.844 -85.541,-129.288c18.941,-76.767 119.97,-100.005 177.182,-49.968c1.967,1.721 7.802,7.137 9.032,8.966c0.469,0.698 0.973,1.2 0.626,2.132c-3.545,3.027 -22.573,24.303 -25.074,24.541c-1.822,0.174 -8.257,-6.551 -10.489,-8.25c-11.517,-8.77 -25.683,-16.205 -40.423,-17.294c-82.842,-6.12 -104.498,100.955 -32.63,129.268c29.357,11.566 68.988,4.378 80.207,-28.086Z" style="fill:#fff;fill-rule:nonzero;"/><path d="M527.79,520.711l53.229,0l-25.419,-70.106l-1.945,-1.087l-25.865,71.193Zm-67.098,77.175l75.691,-197.116l37.037,0.157l75.072,196.959l-37.11,0l-17.214,-40.516l-80.147,0.155l-16.594,40.361l-36.735,0Z" style="fill:#fff;fill-rule:nonzero;"/><path d="M38.234,561.921l53.979,0l0,35.965l-91.464,0c0.244,-0.735 -0.749,-1.625 -0.749,-1.873l0,-194.064c0,-0.079 1.045,-1.124 1.124,-1.124l35.986,0c0.079,0 1.124,1.045 1.124,1.124l0,159.972Z" style="fill:#fff;fill-rule:nonzero;"/><rect x="137.195" y="400.825" width="37.486" height="197.061" style="fill:#fff;fill-rule:nonzero;"/><path d="M871.904,370.105l184.806,-185.806c-4.81,9.489 -9.54,19.008 -12.751,29.21c-2.299,7.318 -3.199,15.26 -6.37,22.105l-132.667,132.649c-0.672,0.485 -2.843,1.842 -3.405,1.842l-29.613,0Z" style="fill:#fff;fill-rule:nonzero;"/><path d="M937.877,370.105l80.963,-81.672c0.17,5.026 -1.29,10.39 -1.53,15.329c-0.23,4.848 1.07,15.773 -0.81,19.418l-44.115,44.323c-0.799,0.745 -4.168,2.602 -4.894,2.602l-29.614,0Z" style="fill:#fff;fill-rule:nonzero;"/><path d="M1030.839,370.105l-23.239,0c-0.33,-1.308 0.54,-1.498 1.12,-2.253c1.36,-1.771 13.97,-14.268 15,-14.274c1.2,-0.007 1.229,0.527 1.719,1.326c2.13,3.484 4.481,11.143 5.4,15.201Z" style="fill:#fff;fill-rule:nonzero;"/><path d="M1776.79,421.053c0.9,-0.614 3.97,-18.785 4.38,-21.476c8.23,-54.361 -1.01,-113.317 -19.36,-164.732c-2.35,-6.591 -8.32,-23.984 -12.73,-28.486c-6.95,-7.096 -15.23,-3.045 -19.3,4.739c-7.35,14.058 0.63,37.508 2.69,53.08c3.11,23.558 4.25,47.456 6.85,71.079c4.14,37.703 3.05,52.34 30.34,80.564c1.24,1.28 5.52,6.321 7.13,5.232Zm-348.01,-397.645c-62.06,2.912 -127.16,23.84 -179.71,56.413c-10.06,6.231 -30.07,14.724 -14.67,27.268c7.29,5.933 26.88,10.666 36.52,13.704c38.67,12.188 55.57,20.501 95.97,5.608c21.61,-7.965 43.32,-18.019 64.85,-26.599c13.63,-5.429 28.73,-9.84 41.93,-15.792c25.42,-11.46 29.53,-32.639 22.79,-58.254c-22.37,-2.689 -45.13,-3.405 -67.68,-2.348Zm164.89,17.317c0.13,0.065 0.15,0.836 0.77,1.12c1.25,0.566 3.02,0.086 4.31,1.56c0.76,0.863 0.68,1.812 -0.75,1.511c-21.77,-8.878 -44.93,-13.719 -67.85,-18.728c6.25,26.358 16.8,48.487 39.63,64.159c18.91,12.988 40.49,24.822 60.01,37.429c17.66,11.407 35.14,24.621 52.9,35.548c8.45,5.201 18.12,10.276 28.44,8.907c1.82,-0.241 18.52,-6.671 19.06,-7.542c0.5,-0.799 0.1,-2.72 -0.22,-3.668l-12.4,-21.325c-0.16,-0.506 0.71,-0.543 1.11,-0.364c3,1.349 17.58,21.848 20.49,25.982c68.52,97.422 91.83,218.862 57.32,334.242c-1.34,4.465 -10.92,33.845 -13.44,34.58c-5.68,1.654 -15.27,-15.93 -18.27,-19.779c-2.15,-2.773 -14.58,-14.868 -14.87,-15.918c-0.77,-2.81 6.01,-12.992 7.53,-16.183c1.49,-3.136 8.02,-16.712 8.1,-18.955c0.03,-0.633 0.02,-1.215 -0.35,-1.76l-67.77,-62.745c3.52,-8.654 7.29,-16.422 9.28,-25.687c5.35,-24.846 0.54,-58.589 -1.88,-84.298c-4.6,-48.863 -4.4,-84.84 -47.74,-115.629c-24.16,-17.163 -56.14,-35.979 -82.2,-50.469c-55.65,-30.941 -87.7,-9.236 -139.71,14.233c-19,8.575 -53.75,22.044 -66.98,37.202c-20.37,23.338 -15.52,51.838 -17.22,80.571c-10.28,-1.27 -19.98,-2.121 -30.36,-1.49c-3.06,0.187 -14.79,3.217 -16.57,0.773c2.15,-26.871 9.99,-57.496 -13.45,-77.19c-14.38,-12.084 -62.35,-32.232 -80.96,-33.728c-32.76,-2.632 -55.52,20.502 -74.13,44.274c-19.52,24.938 -28.05,48.36 -39.83,77.074c-4.08,9.922 -9.6,19.62 -12.88,29.839c-1.62,5.04 -3.66,19.409 -5.45,22.279c-1.8,2.879 -14.52,7.765 -18.51,9.968c-4.78,2.634 -11.82,8.169 -16.21,10.035c-0.9,0.384 -1.74,0.795 -2.76,0.569c-4.38,-13.358 -1.14,-27.91 1.709,-41.339c50.901,-240.413 335.911,-364.03 552.101,-255.058Z" style="fill:#fff;fill-rule:nonzero;"/><path d="M1649.34,519.961l-26.61,-71.916l-26.61,71.916l53.22,0Zm68.23,77.925l-38.24,0l-14.84,-38.734l-1.65,-2.104l-80.22,0l-16.87,40.838l-37.86,0l75.34,-197.064c0.55,-0.843 1.39,-0.685 2.21,-0.788c6.65,-0.829 27.94,-0.835 34.58,0c0.63,0.08 1.29,-0.022 1.86,0.387l0.58,0.915l75.11,196.55Z" style="fill:#fff;fill-rule:nonzero;"/><path d="M1472.3,538.801c0.18,0.108 0.61,1.544 1.2,2.15c5.51,5.707 12.16,11.311 17.29,17.213c1.51,1.731 5.34,5.758 4.91,7.756c-14.13,13.375 -29.6,25.143 -48.39,31.232c-22.22,7.201 -49.41,7.213 -71.77,0.521c-77.81,-23.299 -93.98,-130.496 -32,-179.911c45.62,-36.366 115.53,-28.445 152.14,16.406l-24.78,24.751c-0.81,0.584 -1.39,0.381 -2.22,0c-1.53,-0.706 -6.28,-6.607 -8.25,-8.277c-21.02,-17.815 -48,-25.427 -74.62,-15.367c-58.91,22.257 -57.15,112.327 4.73,128.681c28.18,7.449 50.1,-0.032 71.73,-17.79c1.89,-1.551 7.54,-8.821 10.03,-7.365Z" style="fill:#fff;fill-rule:nonzero;"/><path d="M1156.04,400.076l0,139.741c0,11.447 9.16,23.005 20.21,25.505c21.86,4.941 38.27,-7.314 38.27,-30.001l0,-135.245l37.48,0l0.03,139.772c-5.97,88.926 -136.58,81.209 -134.25,-5.994l0.03,-133.778l38.23,0Z" style="fill:#fff;fill-rule:nonzero;"/><path d="M945.749,437.54c-1.07,0.658 -1.034,1.494 -1.162,2.584c-0.862,7.336 0.715,15.249 0.823,22.481c0.489,32.593 -0.712,65.333 0.292,97.865c0.535,0.769 1.456,0.639 2.26,0.738c23.801,2.914 50.684,-2.266 66.358,-21.413c17.81,-21.748 16.71,-63.666 -2.59,-84.281c-6.88,-7.348 -25.162,-17.974 -35.243,-17.974l-30.738,0Zm-38.609,-36.34c0.584,-1.892 8.657,-0.997 10.863,-1.132c64.201,-3.914 135.997,1.904 145.727,79.899c9.27,74.223 -26.3,114.823 -99.952,117.955c-14.6,0.621 -40.187,1.629 -54.053,0.003c-0.755,-0.089 -2.585,-0.342 -2.585,-1.163l0,-195.562Z" style="fill:#fff;fill-rule:nonzero;"/><path d="M853.161,400.076l0,35.966l-68.598,0c-0.132,0 -1.874,1.74 -1.874,1.873l0,33.717c0,0.08 1.045,1.124 1.125,1.124l69.347,0l0,34.842c0,0.079 -1.045,1.124 -1.125,1.124l-68.222,0c-0.08,0 -1.125,1.044 -1.125,1.124l0,50.202c0,0.079 1.045,1.124 1.125,1.124l69.347,0l0,36.714l-107.957,0l0,-197.81l107.957,0Z" style="fill:#fff;fill-rule:nonzero;"/></g></svg>