<?xml version="1.0" encoding="UTF-8" standalone="no"?><!DOCTYPE svg PUBLIC "-//W3C//DTD SVG 1.1//EN" "http://www.w3.org/Graphics/SVG/1.1/DTD/svg11.dtd"><svg width="100%" height="100%" viewBox="0 0 4505 3392" version="1.1" xmlns="http://www.w3.org/2000/svg" xmlns:xlink="http://www.w3.org/1999/xlink" xml:space="preserve" xmlns:serif="http://www.serif.com/" style="fill-rule:evenodd;clip-rule:evenodd;stroke-linejoin:round;stroke-miterlimit:2;"><g><path d="M4344.25,1874.196c62.209,-271.213 27.834,-556.196 -62.417,-816.558c-11.791,-34.062 -43.292,-129.075 -70.292,-148.271c-46.904,-33.329 -86.404,25.854 -91.892,67.413c-7.892,59.779 25.483,197.033 33.704,265.521c15.896,132.592 17.521,274.388 41.979,404.529c19.542,103.988 65.417,149.771 134.662,224.437l14.254,2.929Zm-1496.613,-1775.692c-320.225,9.229 -635.65,104.933 -901.675,281.917c-16.229,10.796 -41.588,22.604 -44.05,43.366c-4.679,39.546 27.562,55.771 58.583,69.587c169.496,44.354 332.704,143.088 510.662,84.259c112.204,-37.096 230.508,-94.95 341.988,-138.938c59.517,-23.479 126.946,-42.342 184.033,-68.917c105.238,-48.996 129.025,-152.692 94.833,-258.275c-81.096,-10.438 -162.617,-15.358 -244.375,-13Zm-1782.654,1238.638c6.983,-121.871 101.779,-339.646 160.771,-449.679c413.504,-771.275 1415.054,-1088.342 2215.817,-747.625c33.817,14.388 69.604,29.546 100.025,49.871c-0.975,3.35 -7.366,1.358 -10.137,0.771c-88.529,-18.713 -184.704,-65.854 -277.783,-75.321c-13.483,-1.371 -12.709,0.121 -9.7,12.983c27.408,117.117 88.012,211.108 187.358,277.958c75.333,50.696 158.1,96.321 234.938,146.046c89.2,57.725 185.062,132.508 275.35,183.7c26.658,15.117 63.329,30.446 94.488,29.671c34.617,-0.867 68.546,-25.558 101.621,-34.475l-1.321,-15.104l-57.579,-95.425c-1.275,-3.9 0.775,-6.237 4.6,-4.6c8,3.433 36.112,40.704 43.496,50.2c358.283,460.658 479.409,1090.362 274.992,1645.063c-3.667,9.887 -22.625,59.05 -27.75,62.825c-5.375,3.954 -8.375,3.371 -14.421,1.542c-23.371,-7.113 -67.121,-83.013 -87.413,-106.304c-15.458,-17.746 -34.583,-32.325 -49.458,-50.692l73.083,-163.175l-306.883,-282.621c42.883,-79.246 55.471,-160.454 52.363,-249.958c-4.596,-132.4 -20.025,-289.446 -38.004,-420.988c-26.025,-190.371 -97.096,-270.883 -252.837,-371.687c-97.133,-62.871 -205.954,-130.346 -306.825,-186.579c-150.521,-83.912 -249.317,-92.683 -411.129,-29.025c-83.196,32.729 -170.583,72.758 -252.058,110.192c-72.117,33.133 -196.275,82.725 -249.338,137.896c-94.617,98.379 -77.475,202.304 -85.817,326.35c-0.638,9.512 3.55,42.558 -5.108,44.992c-5.004,1.408 -44.796,-8.463 -55.704,-9.237c-49.446,-3.504 -90.467,9.217 -134.429,9.75c-16.15,0.196 -14.916,-6.283 -14.033,-20.496c10.208,-164.025 52.079,-271.317 -115.492,-365.442c-139.075,-78.113 -336.346,-166.158 -483.3,-67.771c-179,119.837 -257.567,323.117 -337.596,511.758c-21.546,50.796 -50.646,94.042 -59.892,150.883c-4.979,-2.725 -5.4,-11.671 -9.313,-14.121c-6.3,-3.946 -132.504,-3.137 -148.467,-1.5c-7.95,0.813 -13.033,2.067 -17.113,9.375Z" style="fill:#fdfdfc;fill-rule:nonzero;"/><path d="M2548.458,1889.792l440.363,0c5.446,209.025 -103.183,404.054 -315.4,454.333c-291.667,69.1 -578.983,-114.792 -596.679,-421.417c-25.496,-441.717 513.529,-638.175 821.55,-352.996c6.175,5.717 29.925,26.513 26.687,32.8l-113.046,112.204c-67.279,-61.392 -146.117,-112.342 -240.083,-118.392c-341.979,-22.008 -455.15,441.321 -141.967,575.933c121.696,52.308 310.025,27.008 365.992,-108.517c1.821,-4.421 3.967,-14.713 -2.25,-14.713l-243.604,0c-0.329,0 -4.683,-4.35 -4.683,-4.683l0,-146.75c0,-1.029 4.138,-4.737 3.121,-7.804Z" style="fill:#0a67ab;fill-rule:nonzero;"/><path d="M3657.167,1992.829c0.767,-6.325 -0.571,-12.096 -2.142,-18.162c-24.429,-94.533 -82.917,-196.967 -110.154,-292.646l-7.912,-7.7l-117.15,318.508l237.358,0Zm302.942,343.454l-167.088,0l-75.371,-180.679l-355.742,-0.642l-73.271,181.321l-171.771,0l335.683,-874.3c2.304,-3.429 5.813,-2.821 9.246,-3.246c46.829,-5.775 105.229,4.8 153.387,-0.004c10.271,-0.696 11.854,8.312 15.375,15.854c100.454,280.962 223.079,554.754 322.508,835.95c2.937,8.308 6.875,16.775 7.042,25.746Z" style="fill:#0a67ab;fill-rule:nonzero;"/><path d="M1239.875,1343.387c-3.496,21.504 -2.204,42.546 -6.375,63.879l0.621,769.258c2.267,0.454 6.179,3.642 7.317,3.642l235.796,0l0,151.433c0,0.329 -4.354,4.683 -4.688,4.683l-399.758,0c-3.421,0 -4.479,-7.625 -4.842,-10.771c-12.529,-106.737 12.325,-234.996 -3.092,-343.483c9.192,-211.792 -11.846,-435.954 0.129,-644.888c4.079,-7.308 9.163,-8.562 17.113,-9.375c15.962,-1.638 142.167,-2.446 148.467,1.5c3.912,2.45 4.333,11.396 9.313,14.121Z" style="fill:#0a67ab;fill-rule:nonzero;"/><rect x="1673.987" y="1455.604" width="168.65" height="880.679" style="fill:#0a67ab;fill-rule:nonzero;"/><path d="M883.842,1415.2l0,145.188l-738.621,738.429l-145.221,0l883.842,-883.617Z" style="fill:#eb2625;fill-rule:nonzero;"/><path d="M893.208,1721.187l0,142.067l-435.671,435.563l-145.229,0l580.9,-577.629Z" style="fill:#eb2625;fill-rule:nonzero;"/><path d="M886.963,2052.154l0,145.188l-101.5,101.475l-148.346,0l249.846,-246.663Z" style="fill:#eb2625;fill-rule:nonzero;"/><path d="M3797.704,3023.192l235.796,0c2.021,0 6.229,-6.267 3.462,-9.492l-114.292,-306.867l-7.846,-2.162l-117.121,318.521Zm543.421,346.579l-170.208,0l-74.829,-181.308l-358.867,0.629c-9.633,3.308 -65.579,180.679 -75.371,180.679l-167.088,0l335.925,-877.183c3.904,-5.104 9.525,-5.804 15.375,-6.483c30.413,-3.529 116.808,-3.762 147.017,-0.129c3.45,0.412 6.833,0.062 9.225,3.267l338.821,880.529Z" style="fill:#71be44;fill-rule:nonzero;"/><path d="M2925.729,2468.354c134.113,-10.475 263.825,25.821 367.5,111.562c9.679,8.008 57.196,52.304 58.033,60.954c0.775,7.987 -8.575,14.837 -14.138,20.208c-32.1,30.979 -65.271,61.492 -99.471,90.025c-26.271,-19.508 -47.887,-43.821 -74.813,-62.692c-247.171,-173.242 -560.325,39.017 -478.521,331.654c40.475,144.792 172.179,218.679 318.683,209.329c99.663,-6.363 168.867,-61.308 239.921,-124.796c38.829,37.058 76.317,77.238 111.408,116.858c0.021,8.554 -68.55,64.171 -80.279,72.85c-245.504,181.658 -630.608,104.796 -738.142,-194.562c-104.638,-291.3 74.954,-606.796 389.817,-631.392Z" style="fill:#71be44;fill-rule:nonzero;"/><path d="M1675.55,2486.154l159.279,0c0.329,0 4.683,4.354 4.683,4.683l0,621.342c0,9.446 8.921,36.308 12.942,46.383c46.758,117.087 246.279,83.508 246.279,-49.508l0,-618.217c0,-0.329 4.35,-4.683 4.683,-4.683l159.279,0c2.588,0 5.525,7.571 4.842,10.771c-8.108,195.513 10.233,398.946 -0.029,593.525c-10.583,200.646 -138.229,318.871 -341.709,297.654c-165.533,-17.263 -246.4,-140.217 -255.062,-297.654c-10.696,-194.296 8.4,-398.217 -0.029,-593.525l4.842,-10.771Z" style="fill:#71be44;fill-rule:nonzero;"/><path d="M902.579,3204.287l135.854,0c41.708,0 116.217,-40.304 146.871,-68.608c105.004,-96.933 106.433,-308.221 4.704,-407.646c-31.712,-30.996 -110.387,-73.275 -154.696,-73.275l-131.171,0l-1.562,549.529Zm-168.646,165.483l0,-880.496c56.208,-4.354 113.717,-4.379 170.337,-3.25c167.925,3.35 348.429,18.929 453.708,167.75c84.6,119.592 93.712,313.3 52.092,450.579c-89.129,293.971 -429,266.142 -676.137,265.417Z" style="fill:#71be44;fill-rule:nonzero;"/><path d="M490.329,2648.517l-307.629,0c-0.55,0 -7.808,7.25 -7.808,7.804l0,154.554l310.754,0c0.329,0 4.683,4.354 4.683,4.683l0,154.554l-310.75,0c-0.333,0 -4.688,4.354 -4.688,4.683l0,224.808c0,0.329 4.354,4.683 4.688,4.683l310.75,0l0,165.483l-480.963,0l0,-878.933c0,-0.329 4.354,-4.683 4.683,-4.683l471.596,0c0.329,0 4.683,4.354 4.683,4.683l0,157.679Z" style="fill:#71be44;fill-rule:nonzero;"/></g></svg>